<?xml version="1.0" encoding="UTF-8"?><!DOCTYPE svg PUBLIC "-//W3C//DTD SVG 1.1//EN" "http://www.w3.org/Graphics/SVG/1.1/DTD/svg11.dtd"><svg xmlns="http://www.w3.org/2000/svg" xmlns:xlink="http://www.w3.org/1999/xlink"><defs/>
<symbol  id="add" viewBox="0 -960 960 960" ><path d="M460-460H240v-40h220v-220h40v220h220v40H500v220h-40z"/></symbol>
<symbol id="arrow_back_ios" viewBox="0 -960 960 960" ><path d="M400-107.69 27.69-480 400-852.31l42.54 42.54L112.77-480l329.77 329.77z"/></symbol>
<symbol id="arrow_forward_ios" viewBox="0 -960 960 960" ><path d="m320.23-107.69-42.54-42.54L607.46-480 277.69-809.77l42.54-42.54L692.54-480z"/></symbol>
<symbol id="autorenew" viewBox="0 -960 960 960" ><path d="M209.38-351.85q-14.3-29.53-21.84-61.46Q180-445.23 180-478q0-125.54 87.62-213.77Q355.23-780 480-780h55.46l-84-84 28.31-28.31L612.08-760 479.77-627.69 451.46-656l84-84H480q-108.46 0-184.23 76.27T220-478q0 23.69 4.85 48.31 4.84 24.61 14.53 47.84zM480.23-67.69 347.92-200l132.31-132.31L508.54-304l-84 84H480q108.46 0 184.23-76.27T740-482q0-23.69-4.85-48.31-4.84-24.61-14.53-47.84l30-30q14.3 29.53 21.84 61.46Q780-514.77 780-482q0 125.54-87.62 213.77Q604.77-180 480-180h-55.46l84 84z"/></symbol>
<symbol id="chat" viewBox="0 -960 960 960" ><path d="M260-420h280v-40H260zm0-120h440v-40H260zm0-120h440v-40H260zM120-156.92v-618.46q0-27.62 18.5-46.12t46.12-18.5h590.76q27.62 0 46.12 18.5t18.5 46.12v430.76q0 27.62-18.5 46.12T775.38-280h-532.3zM226-320h549.38q9.24 0 16.93-7.69t7.69-16.93v-430.76q0-9.24-7.69-16.93T775.38-800H184.62q-9.24 0-16.93 7.69T160-775.38v521.15zm-66 0v-480z"/></symbol>
<symbol id="check" viewBox="0 -960 960 960" ><path d="M382-267.69 183.23-466.46 211.77-495 382-324.77 748.23-691l28.54 28.54z"/></symbol>
<symbol id="check_box_outline_blank" viewBox="0 -960 960 960" ><path d="M224.62-160q-27.62 0-46.12-18.5T160-224.62v-510.76q0-27.62 18.5-46.12t46.12-18.5h510.76q27.62 0 46.12 18.5t18.5 46.12v510.76q0 27.62-18.5 46.12T735.38-160zm0-40h510.76q9.24 0 16.93-7.69t7.69-16.93v-510.76q0-9.24-7.69-16.93T735.38-760H224.62q-9.24 0-16.93 7.69T200-735.38v510.76q0 9.24 7.69 16.93t16.93 7.69"/></symbol>
<symbol id="check_circle" viewBox="0 -960 960 960" ><path d="m422.46-323.69 255.85-255.85L650-607.85 422.46-380.31l-114-114L280.15-466zM480.13-120q-74.67 0-140.41-28.34-65.73-28.34-114.36-76.92t-76.99-114.26Q120-405.19 120-479.87q0-74.67 28.34-140.41 28.34-65.73 76.92-114.36t114.26-76.99Q405.19-840 479.87-840q74.67 0 140.41 28.34 65.73 28.34 114.36 76.92t76.99 114.26Q840-554.81 840-480.13q0 74.67-28.34 140.41-28.34 65.73-76.92 114.36t-114.26 76.99Q554.81-120 480.13-120m-.13-40q134 0 227-93t93-227-93-227-227-93-227 93-93 227 93 227 227 93m0-320"/></symbol>
<symbol id="close" viewBox="0 -960 960 960" ><path d="M256-227.69 227.69-256l224-224-224-224L256-732.31l224 224 224-224L732.31-704l-224 224 224 224L704-227.69l-224-224z"/></symbol>
<symbol id="dark_mode" viewBox="0 -960 960 960" ><path d="M482.31-160q-133.34 0-226.67-93.33-93.33-93.34-93.33-226.67 0-121.54 79.23-210.77t196.15-105.38q3.23 0 6.35.23 3.11.23 6.11.69-20.23 28.23-32.03 62.81-11.81 34.57-11.81 72.42 0 106.67 74.66 181.33Q555.64-404 662.31-404q38.07 0 72.54-11.81 34.46-11.81 61.92-32.04.46 3 .69 6.12.23 3.11.23 6.35-15.38 116.92-104.61 196.15T482.31-160m0-40q88 0 158-48.5t102-126.5q-20 5-40 8t-40 3q-123 0-209.5-86.5T366.31-660q0-20 3-40t8-40q-78 32-126.5 102t-48.5 158q0 116 82 198t198 82m-10-270"/></symbol>
<symbol id="delete_forever" viewBox="0 -960 960 960" ><path d="m376-327.69 104-104 104 104L612.31-356l-104-104 104-104L584-592.31l-104 104-104-104L347.69-564l104 104-104 104zM304.62-160q-27.62 0-46.12-18.5T240-224.62V-720h-40v-40h160v-30.77h240V-760h160v40h-40v495.38q0 27.62-18.5 46.12T655.38-160zM680-720H280v495.38q0 9.24 7.69 16.93t16.93 7.69h350.76q9.24 0 16.93-7.69t7.69-16.93zm-400 0v520z"/></symbol>
<symbol id="download" viewBox="0 -960 960 960" ><path d="M480-336.92 338.46-478.46l28.31-28.77L460-414v-346h40v346l93.23-93.23 28.31 28.77zM264.62-200q-27.62 0-46.12-18.5T200-264.62v-96.92h40v96.92q0 9.24 7.69 16.93t16.93 7.69h430.76q9.24 0 16.93-7.69t7.69-16.93v-96.92h40v96.92q0 27.62-18.5 46.12T695.38-200z"/></symbol>
<symbol id="expand_circle_down" viewBox="0 -960 960 960" ><path d="M480-368.46 631.54-520 603-547.54l-123 123-123-123L328.46-520zm.13 248.46q-74.67 0-140.41-28.34-65.73-28.34-114.36-76.92t-76.99-114.26Q120-405.19 120-479.87q0-74.67 28.34-140.41 28.34-65.73 76.92-114.36t114.26-76.99Q405.19-840 479.87-840q74.67 0 140.41 28.34 65.73 28.34 114.36 76.92t76.99 114.26Q840-554.81 840-480.13q0 74.67-28.34 140.41-28.34 65.73-76.92 114.36t-114.26 76.99Q554.81-120 480.13-120m-.13-40q134 0 227-93t93-227-93-227-227-93-227 93-93 227 93 227 227 93m0-320"/></symbol>
<symbol id="favorite" viewBox="0 -960 960 960" ><path d="m480-173.85-30.31-27.38q-97.92-89.46-162-153.15-64.07-63.7-101.15-112.35t-51.81-88.04Q120-594.15 120-634q0-76.31 51.85-128.15Q223.69-814 300-814q52.77 0 99 27t81 78.54Q514.77-760 561-787t99-27q76.31 0 128.15 51.85Q840-710.31 840-634q0 39.85-14.73 79.23-14.73 39.39-51.81 88.04T672.69-354.38Q609-290.69 510.31-201.23zm0-54.15q96-86.77 158-148.65 62-61.89 98-107.39t50-80.61q14-35.12 14-69.35 0-60-40-100t-100-40q-47.77 0-88.15 27.27-40.39 27.27-72.31 82.11h-39.08q-32.69-55.61-72.69-82.5Q347.77-774 300-774q-59.23 0-99.62 40Q160-694 160-634q0 34.23 14 69.35 14 35.11 50 80.61t98 107T480-228m0-273"/></symbol>
<symbol id="filter_alt" viewBox="0 -960 960 960" ><path d="M470.77-200q-13.15 0-21.96-8.81T440-230.77v-223.08L224.15-726.77q-8.07-10.77-2.19-22Q227.85-760 240.77-760h478.46q12.92 0 18.81 11.23 5.88 11.23-2.19 22L520-453.85v223.08q0 13.15-8.81 21.96T489.23-200zM480-468l198-252H282zm0 0"/></symbol>
<symbol id="home" viewBox="0 -960 960 960" ><path d="M240-200h147.69v-235.38h184.62V-200H720v-360L480-741.54 240-560zm-40 40v-420l280-211.54L760-580v420H532.31v-235.38H427.69V-160zm280-310.77"/></symbol>
<symbol id="ios_share" viewBox="0 -960 960 960" ><path d="M264.62-80Q237-80 218.5-98.5T200-144.62v-390.76q0-27.62 18.5-46.12t46.12-18.5h84.61v40h-84.61q-9.24 0-16.93 7.69T240-535.38v390.76q0 9.24 7.69 16.93t16.93 7.69h430.76q9.24 0 16.93-7.69t7.69-16.93v-390.76q0-9.24-7.69-16.93T695.38-560h-84.61v-40h84.61q27.62 0 46.12 18.5t18.5 46.12v390.76q0 27.62-18.5 46.12T695.38-80zM460-340v-435.46l-84 84L347.69-720 480-852.31 612.31-720 584-691.46l-84-84V-340z"/></symbol>
<symbol id="key" viewBox="0 -960 960 960" ><path d="M280-430.77q-20.69 0-34.96-14.27T230.77-480t14.27-34.96T280-529.23t34.96 14.27T329.23-480t-14.27 34.96T280-430.77M280-280q-83.08 0-141.54-58.46T80-480t58.46-141.54T280-680q61.62 0 111.12 33.38 49.5 33.39 72.26 86.62h368.16l80 80-127.69 126.15-68.47-51.53-72.3 53.07L571.92-400H463.38q-22.76 52.46-72.26 86.23T280-280m0-40q59.08 0 100.81-35.54T434.23-440h150.39l57.23 38.69 74.3-53.31L781-405.77 855.23-480l-40-40h-381q-11.69-48.92-53.42-84.46T280-640q-66 0-113 47t-47 113 47 113 113 47"/></symbol>
<symbol id="light_mode" viewBox="0 -960 960 960" ><path d="M480-360q50 0 85-35t35-85-35-85-85-35-85 35-35 85 35 85 85 35m0 40q-66.85 0-113.42-46.58Q320-413.15 320-480t46.58-113.42Q413.15-640 480-640t113.42 46.58Q640-546.85 640-480t-46.58 113.42Q546.85-320 480-320M200-460H60v-40h140zm700 0H760v-40h140zM460-760v-140h40v140zm0 700v-140h40v140zM269.85-663.85l-86.39-83.92 27.77-29.77 84.46 85.39zm478.92 481.39-84.69-85.62 26.07-28.07 86.39 83.92zm-84.92-507.69 83.92-86.39 29.77 27.77-85.39 84.46zM182.46-211.23l85.62-84.69 26.54 26.07-83.16 87.16zM480-480"/></symbol>
<symbol id="login" viewBox="0 -960 960 960" ><path d="M479.23-160v-40h256.15q9.24 0 16.93-7.69t7.69-16.93v-510.76q0-9.24-7.69-16.93T735.38-760H479.23v-40h256.15q27.62 0 46.12 18.5t18.5 46.12v510.76q0 27.62-18.5 46.12T735.38-160zm-28.46-178.46-28.08-28.77L515.46-460H160v-40h355.46l-92.77-92.77 28.08-28.77L592.31-480z"/></symbol>
<symbol id="logout" viewBox="0 -960 960 960" ><path d="M224.62-160q-27.62 0-46.12-18.5T160-224.62v-510.76q0-27.62 18.5-46.12t46.12-18.5h256.15v40H224.62q-9.24 0-16.93 7.69T200-735.38v510.76q0 9.24 7.69 16.93t16.93 7.69h256.15v40zm433.84-178.46-28.08-28.77L723.15-460H367.69v-40h355.46l-92.77-92.77 28.08-28.77L800-480z"/></symbol>
<symbol id="menu" viewBox="0 -960 960 960" ><path d="M160-269.23v-40h640v40zM160-460v-40h640v40zm0-190.77v-40h640v40z"/></symbol>
<symbol id="move_up" viewBox="0 -960 960 960" ><path d="M337.69-200q-102.38 0-175.42-69.19T89.23-440t77.04-168.42q77.04-66.81 182.27-71.89l-82.23-82.92 28.31-28.31L426.15-660 294.62-528.46 266.31-557l82.84-82.85q-88.69 4.77-154.3 60.16-65.62 55.38-65.62 139.69 0 84.54 61.58 142.27Q252.38-240 338.46-240H420v40zM540-527.69V-760h300v232.31zM540-200v-232.31h300V-200zm40-40h220v-152.31H580z"/></symbol>
<symbol id="open_in_new" viewBox="0 -960 960 960" ><path d="M224.62-160q-27.62 0-46.12-18.5T160-224.62v-510.76q0-27.62 18.5-46.12t46.12-18.5h224.61v40H224.62q-9.24 0-16.93 7.69T200-735.38v510.76q0 9.24 7.69 16.93t16.93 7.69h510.76q9.24 0 16.93-7.69t7.69-16.93v-224.61h40v224.61q0 27.62-18.5 46.12T735.38-160zm164.92-201.23-28.31-28.31L731.69-760H560v-40h240v240h-40v-171.69z"/></symbol>
<symbol id="play_arrow" viewBox="0 -960 960 960" ><path d="M360-272.31v-415.38L686.15-480zM400-346l211.54-134L400-614z"/></symbol>
<symbol id="remove" viewBox="0 -960 960 960" ><path d="M240-460v-40h480v40z"/></symbol>
<symbol id="search" viewBox="0 -960 960 960" ><path d="M779.38-153.85 528.92-404.31q-30 25.54-69 39.54t-78.38 14q-96.1 0-162.67-66.53-66.56-66.53-66.56-162.57 0-96.05 66.53-162.71 66.53-66.65 162.57-66.65 96.05 0 162.71 66.56Q610.77-676.1 610.77-580q0 41.69-14.77 80.69t-38.77 66.69l250.46 250.47zM381.54-390.77q79.61 0 134.42-54.81 54.81-54.8 54.81-134.42t-54.81-134.42q-54.81-54.81-134.42-54.81-79.62 0-134.42 54.81-54.81 54.8-54.81 134.42t54.81 134.42q54.8 54.81 134.42 54.81"/></symbol>
<symbol id="sell" viewBox="0 -960 960 960" ><path d="M820.62-393.85 566.15-139.38q-9.8 9.69-22.05 14.53-12.25 4.85-24.37 4.85-12.11 0-24.23-4.85-12.12-4.84-21.81-14.53L139.15-473.15q-9.46-8.7-14.3-20.72-4.85-12.02-4.85-25.28v-255.47q0-26.97 18.88-46.17Q157.77-840 185.38-840h255.47q12.97 0 25.14 5.25t21.09 14.13l333.54 333.77q9.99 9.81 14.57 22.06t4.58 24.65-4.58 24.39q-4.58 11.98-14.57 21.9m-283 226.16 254.46-254.46q7.69-7.7 7.69-18.08 0-10.39-7.69-18.08L450.62-799.23H185.38q-10.76 0-18.07 6.92-7.31 6.93-7.31 17.69v255.24q0 4.61 1.54 9.23 1.54 4.61 5.38 8.46l334.54 334q7.69 7.69 18.08 7.69 10.38 0 18.08-7.69m-275.63-490q16.86 0 28.59-11.67t11.73-28.33q0-16.99-11.67-28.88t-28.33-11.89q-16.99 0-28.88 11.8t-11.89 28.65q0 16.86 11.8 28.59t28.65 11.73m219.55 179.23"/></symbol>
<symbol id="send" viewBox="0 -960 960 960" ><path d="M160-220v-520l616.92 260zm40-60 474-200-474-200v155.38L393.85-480 200-435.38zm0 0v-400z"/></symbol>
<symbol id="settings" viewBox="0 -960 960 960" ><path d="m405.38-120-14.46-115.69q-19.15-5.77-41.42-18.16-22.27-12.38-37.88-26.53L204.92-235l-74.61-130 92.23-69.54q-1.77-10.84-2.92-22.34-1.16-11.5-1.16-22.35 0-10.08 1.16-21.19 1.15-11.12 2.92-25.04L130.31-595l74.61-128.46 105.93 44.61q17.92-14.92 38.77-26.92 20.84-12 40.53-18.54L405.38-840h149.24l14.46 116.46q23 8.08 40.65 18.54t36.35 26.15l109-44.61L829.69-595l-95.31 71.85q3.31 12.38 3.7 22.73.38 10.34.38 20.42 0 9.31-.77 19.65-.77 10.35-3.54 25.04L827.92-365l-74.61 130-107.23-46.15q-18.7 15.69-37.62 26.92t-39.38 17.77L554.62-120zM440-160h78.23L533-268.31q30.23-8 54.42-21.96 24.2-13.96 49.27-38.27L736.46-286l39.77-68-87.54-65.77q5-17.08 6.62-31.42 1.61-14.35 1.61-28.81 0-15.23-1.61-28.81-1.62-13.57-6.62-29.88L777.77-606 738-674l-102.08 42.77q-18.15-19.92-47.73-37.35-29.57-17.42-55.96-23.11L520-800h-79.77l-12.46 107.54q-30.23 6.46-55.58 20.81-25.34 14.34-50.42 39.42L222-674l-39.77 68L269-541.23q-5 13.46-7 29.23t-2 32.77q0 15.23 2 30.23t6.23 29.23l-86 65.77L222-286l99-42q23.54 23.77 48.88 38.12 25.35 14.34 57.12 22.34zm38.92-220q41.85 0 70.93-29.08 29.07-29.07 29.07-70.92t-29.07-70.92Q520.77-580 478.92-580q-42.07 0-71.04 29.08-28.96 29.07-28.96 70.92t28.96 70.92Q436.85-380 478.92-380M480-480"/></symbol>
<symbol id="sort" viewBox="0 -960 960 960" ><path d="M160-280v-40h190v40zm0-180v-40h414.62v40zm0-180v-40h640v40z"/></symbol>
<symbol id="star" viewBox="0 -960 960 960" ><path d="m354-287 126-76 126 77-33-144 111-96-146-13-58-136-58 135-146 13 111 97zm-61 83.92 49.62-212.54-164.93-142.84 217.23-18.85L480-777.69l85.08 200.38 217.23 18.85-164.93 142.84L667-203.08 480-315.92zM480-470"/></symbol>
<symbol id="swipe_vertical" viewBox="0 -960 960 960" ><path d="M120-120v-34.62h92.54q-59-68.92-94.23-151.3-35.23-82.39-35.23-173.7 0-91.3 35.23-173.3t94.23-151.7H120V-840h163.85v164.62h-34.62v-117.54q-58.77 66.77-95.15 145.84-36.39 79.08-36.39 167.46 0 88.39 36.39 167.08 36.38 78.69 95.15 144.69v-116h34.62V-120zm531.85-47.77q-18.39 6.46-38.43 5.96T575.23-171L322.46-288.38l11.85-23.85q6.15-10.77 16.03-17.22 9.89-6.44 21.97-7.47l114.15-12.7L372.15-662q-2.92-8.31.69-15.46 3.6-7.16 11.84-10.12t15.41.63 10.14 11.8l131.85 362.38-150 13.15 200.23 92.54q10.07 4.54 22.31 5.43 12.23.88 23.07-3.43l137.77-50.07q39.46-14.08 56.92-51.5 17.47-37.43 3.39-76.89l-55-150q-2.92-8.31.23-15.5t11.46-10.11q8.31-2.93 15.5.23 7.19 3.15 10.12 11.46l55 150q20.69 55.31-3.58 107.39-24.28 52.09-79.88 72.22zm-70.77-250.38-54.77-151q-2.93-8.31.68-15.47 3.61-7.15 11.85-10.11t15.41.63 10.13 11.79l55 150zm106.84-39.47-41-113q-2.92-8.3.69-15.19 3.6-6.88 11.84-9.73 8.24-2.84 15.43.31 7.2 3.15 10.12 11.46L726-471zm-4.3 108"/></symbol>
<symbol id="touch_app" viewBox="0 -960 960 960" ><path d="M446.69-120q-32.61 0-62.11-13.54t-48.81-39.38L146.23-423.77l10.54-11.54q10-11 23.77-13.46t26.23 4.85l120.92 59.61v-304.92q0-8.5 5.76-14.25t14.27-5.75 14.36 5.75q5.84 5.75 5.84 14.25v372.77l-143.15-70.77L370.31-195q13.69 17.77 34 26.38 20.31 8.62 42.38 8.62h172.54q42.23 0 71.5-28.88Q720-217.77 720-260v-141.54q0-24.19-16.37-40.56-16.36-16.36-40.55-16.36H478.69v-40h184.39q40.38 0 68.65 28.27T760-401.54v141.49q0 58.36-41.35 99.2Q677.3-120 619.23-120zM209.31-609.23q-10.69-18.15-16.16-38.37-5.46-20.22-5.46-41.63 0-66.85 46.58-113.42 46.58-46.58 113.42-46.58 66.85 0 113.43 46.58 46.57 46.57 46.57 113.32 0 21.71-5.46 41.83t-16.15 38.27l-34.39-20q8-14 12-28.5t4-31.5q0-50-35-85t-85-35-85 35-35 85q0 17 4 31.5t12 28.5zm263.46 280"/></symbol>
<symbol id="undo" viewBox="0 -960 960 960" ><path d="M296.15-240v-40h290.16q62.23 0 106.04-42.69 43.8-42.69 43.8-104.23t-43.8-103.85q-43.81-42.31-106.04-42.31H276.62l118.61 118.62-28.31 28.31L200-593.08 366.92-760l28.31 28.31-118.61 118.61h309.69q78.54 0 134.19 54.16 55.65 54.15 55.65 132 0 77.84-55.65 132.38T586.31-240z"/></symbol>
<symbol id="unfold_more" viewBox="0 -960 960 960" ><path d="M480-149.23 326.15-303.08l28.77-28.77L480-206.77l125.08-125.08 28.77 28.77zm-125.08-478L326.15-656 480-809.85 633.85-656l-28.77 28.77L480-752.31z"/></symbol>
<symbol id="upload" viewBox="0 -960 960 960" ><path d="M460-336.92v-346l-93.23 93.23-28.31-28.77L480-760l141.54 141.54-28.31 28.77L500-682.92v346zM264.62-200q-27.62 0-46.12-18.5T200-264.62v-96.92h40v96.92q0 9.24 7.69 16.93t16.93 7.69h430.76q9.24 0 16.93-7.69t7.69-16.93v-96.92h40v96.92q0 27.62-18.5 46.12T695.38-200z"/></symbol>
<symbol id="visibility" viewBox="0 -960 960 960" ><path d="M480.18-353.85q60.97 0 103.47-42.68t42.5-103.65-42.68-103.47-103.65-42.5-103.47 42.68-42.5 103.65 42.68 103.47 103.65 42.5M480-392q-45 0-76.5-31.5T372-500t31.5-76.5T480-608t76.5 31.5T588-500t-31.5 76.5T480-392m.11 152q-129.96 0-236.88-70.73T83.08-500q53.23-118.54 160.04-189.27T479.89-760t236.88 70.73T876.92-500q-53.23 118.54-160.04 189.27T480.11-240m-.11-40q113 0 207.5-59.5T832-500q-50-101-144.5-160.5T480-720t-207.5 59.5T128-500q50 101 144.5 160.5T480-280"/></symbol>
<symbol id="facebook_alt" viewBox="0 0 32 32" ><path d="M16,2c-7.732,0-14,6.268-14,14,0,6.566,4.52,12.075,10.618,13.588v-9.31h-2.887v-4.278h2.887v-1.843c0-4.765,2.156-6.974,6.835-6.974,.887,0,2.417,.174,3.043,.348v3.878c-.33-.035-.904-.052-1.617-.052-2.296,0-3.183,.87-3.183,3.13v1.513h4.573l-.786,4.278h-3.787v9.619c6.932-.837,12.304-6.74,12.304-13.897,0-7.732-6.268-14-14-14Z"/></symbol>
<symbol id="instagram" viewBox="0 0 32 32" ><path d="M10.202,2.098c-1.49,.07-2.507,.308-3.396,.657-.92,.359-1.7,.84-2.477,1.619-.776,.779-1.254,1.56-1.61,2.481-.345,.891-.578,1.909-.644,3.4-.066,1.49-.08,1.97-.073,5.771s.024,4.278,.096,5.772c.071,1.489,.308,2.506,.657,3.396,.359,.92,.84,1.7,1.619,2.477,.779,.776,1.559,1.253,2.483,1.61,.89,.344,1.909,.579,3.399,.644,1.49,.065,1.97,.08,5.771,.073,3.801-.007,4.279-.024,5.773-.095s2.505-.309,3.395-.657c.92-.36,1.701-.84,2.477-1.62s1.254-1.561,1.609-2.483c.345-.89,.579-1.909,.644-3.398,.065-1.494,.081-1.971,.073-5.773s-.024-4.278-.095-5.771-.308-2.507-.657-3.397c-.36-.92-.84-1.7-1.619-2.477s-1.561-1.254-2.483-1.609c-.891-.345-1.909-.58-3.399-.644s-1.97-.081-5.772-.074-4.278,.024-5.771,.096m.164,25.309c-1.365-.059-2.106-.286-2.6-.476-.654-.252-1.12-.557-1.612-1.044s-.795-.955-1.05-1.608c-.192-.494-.423-1.234-.487-2.599-.069-1.475-.084-1.918-.092-5.656s.006-4.18,.071-5.656c.058-1.364,.286-2.106,.476-2.6,.252-.655,.556-1.12,1.044-1.612s.955-.795,1.608-1.05c.493-.193,1.234-.422,2.598-.487,1.476-.07,1.919-.084,5.656-.092,3.737-.008,4.181,.006,5.658,.071,1.364,.059,2.106,.285,2.599,.476,.654,.252,1.12,.555,1.612,1.044s.795,.954,1.051,1.609c.193,.492,.422,1.232,.486,2.597,.07,1.476,.086,1.919,.093,5.656,.007,3.737-.006,4.181-.071,5.656-.06,1.365-.286,2.106-.476,2.601-.252,.654-.556,1.12-1.045,1.612s-.955,.795-1.608,1.05c-.493,.192-1.234,.422-2.597,.487-1.476,.069-1.919,.084-5.657,.092s-4.18-.007-5.656-.071M21.779,8.517c.002,.928,.755,1.679,1.683,1.677s1.679-.755,1.677-1.683c-.002-.928-.755-1.679-1.683-1.677,0,0,0,0,0,0-.928,.002-1.678,.755-1.677,1.683m-12.967,7.496c.008,3.97,3.232,7.182,7.202,7.174s7.183-3.232,7.176-7.202c-.008-3.97-3.233-7.183-7.203-7.175s-7.182,3.233-7.174,7.203m2.522-.005c-.005-2.577,2.08-4.671,4.658-4.676,2.577-.005,4.671,2.08,4.676,4.658,.005,2.577-2.08,4.671-4.658,4.676-2.577,.005-4.671-2.079-4.676-4.656h0"/></symbol>
<symbol id="person" viewBox="0 -960 960 960" ><path d="M480-504.62q-49.5 0-84.75-35.25T360-624.62q0-49.5 35.25-84.75T480-744.62q49.5 0 84.75 35.25T600-624.62q0 49.5-35.25 84.75T480-504.62ZM200-215.38v-65.85q0-24.77 14.42-46.35 14.43-21.57 38.81-33.5 56.62-27.15 113.31-40.73 56.69-13.57 113.46-13.57 56.77 0 113.46 13.57 56.69 13.58 113.31 40.73 24.38 11.93 38.81 33.5Q760-306 760-281.23v65.85H200Zm40-40h480v-25.85q0-13.31-8.58-25-8.57-11.69-23.73-19.77-49.38-23.92-101.83-36.65-52.45-12.73-105.86-12.73t-105.86 12.73Q321.69-349.92 272.31-326q-15.16 8.08-23.73 19.77-8.58 11.69-8.58 25v25.85Zm240-289.24q33 0 56.5-23.5t23.5-56.5q0-33-23.5-56.5t-56.5-23.5q-33 0-56.5 23.5t-23.5 56.5q0 33 23.5 56.5t56.5 23.5Zm0-80Zm0 369.24Z"/></symbol>
<symbol id="x" viewBox="0 0 32 32" ><path d="M18.42,14.009L27.891,3h-2.244l-8.224,9.559L10.855,3H3.28l9.932,14.455L3.28,29h2.244l8.684-10.095,6.936,10.095h7.576l-10.301-14.991h0Zm-3.074,3.573l-1.006-1.439L6.333,4.69h3.447l6.462,9.243,1.006,1.439,8.4,12.015h-3.447l-6.854-9.804h0Z"/></symbol>
<symbol id="linkedin" viewBox="0 0 32 32" ><path d="M26.111,3H5.889c-1.595,0-2.889,1.293-2.889,2.889V26.111c0,1.595,1.293,2.889,2.889,2.889H26.111c1.595,0,2.889-1.293,2.889-2.889V5.889c0-1.595-1.293-2.889-2.889-2.889ZM10.861,25.389h-3.877V12.87h3.877v12.519Zm-1.957-14.158c-1.267,0-2.293-1.034-2.293-2.31s1.026-2.31,2.293-2.31,2.292,1.034,2.292,2.31-1.026,2.31-2.292,2.31Zm16.485,14.158h-3.858v-6.571c0-1.802-.685-2.809-2.111-2.809-1.551,0-2.362,1.048-2.362,2.809v6.571h-3.718V12.87h3.718v1.686s1.118-2.069,3.775-2.069,4.556,1.621,4.556,4.975v7.926Z" fill-rule="evenodd"/></symbol>
<symbol id="youtube" viewBox="0 0 32 32" ><path d="M31.331,8.248c-.368-1.386-1.452-2.477-2.829-2.848-2.496-.673-12.502-.673-12.502-.673,0,0-10.007,0-12.502,.673-1.377,.37-2.461,1.462-2.829,2.848-.669,2.512-.669,7.752-.669,7.752,0,0,0,5.241,.669,7.752,.368,1.386,1.452,2.477,2.829,2.847,2.496,.673,12.502,.673,12.502,.673,0,0,10.007,0,12.502-.673,1.377-.37,2.461-1.462,2.829-2.847,.669-2.512,.669-7.752,.669-7.752,0,0,0-5.24-.669-7.752ZM12.727,20.758V11.242l8.364,4.758-8.364,4.758Z"/></symbol>
<symbol id="whatsapp" viewBox="0 0 32 32" ><path d="M30.667,14.939c0,8.25-6.74,14.938-15.056,14.938c-2.639,0-5.118-0.675-7.276-1.857L0,30.667l2.717-8.017c-1.37-2.25-2.159-4.892-2.159-7.712C0.559,6.688,7.297,0,15.613,0C23.928,0.002,30.667,6.689,30.667,14.939z M15.61,2.382c-6.979,0-12.656,5.634-12.656,12.56c0,2.748,0.896,5.292,2.411,7.362l-1.58,4.663l4.862-1.545c2,1.312,4.393,2.076,6.963,2.076c6.979,0,12.658-5.633,12.658-12.559C28.27,8.016,22.59,2.382,15.61,2.382z M23.214,18.38c-0.094-0.151-0.34-0.243-0.708-0.427c-0.367-0.184-2.184-1.069-2.521-1.189c-0.34-0.123-0.586-0.185-0.832,0.182c-0.243,0.367-0.951,1.191-1.168,1.437c-0.215,0.245-0.43,0.276-0.799,0.095c-0.369-0.186-1.559-0.57-2.969-1.817c-1.097-0.972-1.838-2.169-2.052-2.536c-0.217-0.366-0.022-0.564,0.161-0.746c0.165-0.165,0.369-0.428,0.554-0.643c0.185-0.213,0.246-0.364,0.369-0.609c0.121-0.245,0.06-0.458-0.031-0.643c-0.092-0.184-0.829-1.984-1.138-2.717c-0.307-0.732-0.614-0.611-0.83-0.611c-0.215,0-0.461-0.03-0.707-0.03S9.897,8.215,9.56,8.582s-1.291,1.252-1.291,3.054c0,1.804,1.321,3.543,1.506,3.787c0.186,0.243,2.554,4.062,6.305,5.528c3.753,1.465,3.753,0.976,4.429,0.914c0.678-0.062,2.184-0.885,2.49-1.739C23.307,19.268,23.307,18.533,23.214,18.38z"/></symbol>
<symbol id="mail" viewBox="0 -960 960 960" ><path d="M184.62-200q-27.62 0-46.12-18.5Q120-237 120-264.62v-430.76q0-27.62 18.5-46.12Q157-760 184.62-760h590.76q27.62 0 46.12 18.5Q840-723 840-695.38v430.76q0 27.62-18.5 46.12Q803-200 775.38-200H184.62ZM480-475.38 160-684.62v420q0 10.77 6.92 17.7 6.93 6.92 17.7 6.92h590.76q10.77 0 17.7-6.92 6.92-6.93 6.92-17.7v-420L480-475.38Zm0-44.62 307.69-200H172.31L480-520ZM160-684.62V-720v455.38q0 10.77 6.92 17.7 6.93 6.92 17.7 6.92H160v-444.62Z"/></symbol>
<symbol id="facebook" viewBox="0 0 24 24" ><path d="M12 2.03998C6.5 2.03998 2 6.52998 2 12.06C2 17.06 5.66 21.21 10.44 21.96V14.96H7.9V12.06H10.44V9.84998C10.44 7.33998 11.93 5.95998 14.22 5.95998C15.31 5.95998 16.45 6.14998 16.45 6.14998V8.61998H15.19C13.95 8.61998 13.56 9.38998 13.56 10.18V12.06H16.34L15.89 14.96H13.56V21.96C15.9164 21.5878 18.0622 20.3855 19.6099 18.57C21.1576 16.7546 22.0054 14.4456 22 12.06C22 6.52998 17.5 2.03998 12 2.03998Z"/></symbol>
<symbol id="contact-mail" viewBox="0 -960 960 960" ><path d="M567.69-512.31h264.62v-184.61H567.69v184.61ZM700-557.69l-98.46-68.46v-35.39L700-593.08l98.46-68.46v35.39L700-557.69ZM104.62-175.38q-27.62 0-46.12-18.5Q40-212.38 40-240v-480q0-27.62 18.5-46.12 18.5-18.5 46.12-18.5h750.76q27.62 0 46.12 18.5Q920-747.62 920-720v480q0 27.62-18.5 46.12-18.5 18.5-46.12 18.5H104.62Zm486.76-40h264q9.24 0 16.93-7.7Q880-230.77 880-240v-480q0-9.23-7.69-16.92-7.69-7.7-16.93-7.7H104.62q-9.24 0-16.93 7.7Q80-729.23 80-720v480q0 9.23 7.69 16.92 7.69 7.7 16.93 7.7h24q42-54.24 102.15-87.12 60.15-32.88 129.23-32.88 69.08 0 129.23 32.88 60.15 32.88 102.15 87.12ZM360-390.77q41.54 0 70.77-29.23Q460-449.23 460-490.77q0-41.54-29.23-70.77-29.23-29.23-70.77-29.23-41.54 0-70.77 29.23Q260-532.31 260-490.77q0 41.54 29.23 70.77 29.23 29.23 70.77 29.23ZM182-215.38h356q-34.77-38-80.88-59-46.12-21-97.12-21-51 0-97 21t-81 59Zm178-215.39q-24.69 0-42.35-17.65Q300-466.08 300-490.77t17.65-42.35q17.66-17.65 42.35-17.65t42.35 17.65Q420-515.46 420-490.77t-17.65 42.35q-17.66 17.65-42.35 17.65ZM480-480Z"/></symbol>
<symbol id="3p" viewBox="0 -960 960 960" ><path d="M347.69-435.38h264.62V-442q0-31.69-37.46-52.54-37.47-20.84-94.85-20.84-57.38 0-94.85 20.84-37.46 20.85-37.46 52.54v6.62ZM480-580q25.31 0 42.65-17.35Q540-614.69 540-640t-17.35-42.65Q505.31-700 480-700t-42.65 17.35Q420-665.31 420-640t17.35 42.65Q454.69-580 480-580ZM120-156.92v-618.46q0-27.62 18.5-46.12Q157-840 184.62-840h590.76q27.62 0 46.12 18.5Q840-803 840-775.38v430.76q0 27.62-18.5 46.12Q803-280 775.38-280h-532.3L120-156.92ZM226-320h549.38q9.24 0 16.93-7.69 7.69-7.69 7.69-16.93v-430.76q0-9.24-7.69-16.93-7.69-7.69-16.93-7.69H184.62q-9.24 0-16.93 7.69-7.69 7.69-7.69 16.93v521.15L226-320Zm-66 0v-480 480Z"/></symbol>
<symbol id="link" viewBox="0 -960 960 960" ><path d="M424.62-316.92H283.08q-67.68 0-115.38-47.69Q120-412.3 120-479.96t47.7-115.39q47.7-47.73 115.38-47.73h141.54v40H283.08q-50.77 0-86.93 36.16Q160-530.77 160-480t36.15 86.92q36.16 36.16 86.93 36.16h141.54v40ZM340-460v-40h280v40H340Zm195.38 143.08v-40h141.54q50.77 0 86.93-36.16Q800-429.23 800-480t-36.15-86.92q-36.16-36.16-86.93-36.16H535.38v-40h141.54q67.68 0 115.38 47.69Q840-547.7 840-480.04t-47.7 115.39q-47.7 47.73-115.38 47.73H535.38Z"/></symbol>
<symbol id="earth" viewBox="0 -960 960 960" ><path d="M480-120q-74.31 0-140-28.42-65.69-28.43-114.42-77.16-48.73-48.73-77.16-114.42Q120-405.69 120-480q0-74.54 28.42-140.12 28.43-65.57 77.16-114.3 48.73-48.73 114.42-77.16Q405.69-840 480-840q74.54 0 140.12 28.42 65.57 28.43 114.3 77.16 48.73 48.73 77.16 114.3Q840-554.54 840-480q0 74.31-28.42 140-28.43 65.69-77.16 114.42-48.73 48.73-114.3 77.16Q554.54-120 480-120Zm0-39.69q35.23-45.23 58.08-88.85 22.84-43.61 37.15-97.61H384.77q15.85 57.07 37.92 100.69 22.08 43.61 57.31 85.77Zm-50.92-6q-28-33-51.12-81.58-23.11-48.58-34.42-98.88H190.15q34.39 74.61 97.5 122.38 63.12 47.77 141.43 58.08Zm101.84 0q78.31-10.31 141.43-58.08 63.11-47.77 97.5-122.38H616.46q-15.15 51.07-38.27 99.65-23.11 48.58-47.27 80.81ZM173.85-386.15h161.38q-4.54-24.62-6.42-47.97-1.89-23.34-1.89-45.88 0-22.54 1.89-45.88 1.88-23.35 6.42-47.97H173.85q-6.54 20.77-10.2 45.27Q160-504.08 160-480t3.65 48.58q3.66 24.5 10.2 45.27Zm201.38 0h209.54q4.54-24.62 6.42-47.2 1.89-22.57 1.89-46.65t-1.89-46.65q-1.88-22.58-6.42-47.2H375.23q-4.54 24.62-6.42 47.2-1.89 22.57-1.89 46.65t1.89 46.65q1.88 22.58 6.42 47.2Zm249.54 0h161.38q6.54-20.77 10.2-45.27Q800-455.92 800-480t-3.65-48.58q-3.66-24.5-10.2-45.27H624.77q4.54 24.62 6.42 47.97 1.89 23.34 1.89 45.88 0 22.54-1.89 45.88-1.88 23.35-6.42 47.97Zm-8.31-227.7h153.39Q734.69-690 673.5-736.23q-61.19-46.23-142.58-58.85 28 36.85 50.35 84.27 22.35 47.43 35.19 96.96Zm-231.69 0h190.46q-15.85-56.3-39.08-101.84-23.23-45.54-56.15-84.62-32.92 39.08-56.15 84.62-23.23 45.54-39.08 101.84Zm-194.62 0h153.39q12.84-49.53 35.19-96.96 22.35-47.42 50.35-84.27-82.16 12.62-142.96 59.23-60.81 46.62-95.97 122Z"/></symbol>
<symbol id="github" viewBox="0 0 96 96" ><path d="M48.854 0C21.839 0 0 22 0 49.217c0 21.756 13.993 40.172 33.405 46.69 2.427.49 3.316-1.059 3.316-2.362 0-1.141-.08-5.052-.08-9.127-13.59 2.934-16.42-5.867-16.42-5.867-2.184-5.704-5.42-7.17-5.42-7.17-4.448-3.015.324-3.015.324-3.015 4.934.326 7.523 5.052 7.523 5.052 4.367 7.496 11.404 5.378 14.235 4.074.404-3.178 1.699-5.378 3.074-6.6-10.839-1.141-22.243-5.378-22.243-24.283 0-5.378 1.94-9.778 5.014-13.2-.485-1.222-2.184-6.275.486-13.038 0 0 4.125-1.304 13.426 5.052a46.97 46.97 0 0 1 12.214-1.63c4.125 0 8.33.571 12.213 1.63 9.302-6.356 13.427-5.052 13.427-5.052 2.67 6.763.97 11.816.485 13.038 3.155 3.422 5.015 7.822 5.015 13.2 0 18.905-11.404 23.06-22.324 24.283 1.78 1.548 3.316 4.481 3.316 9.126 0 6.6-.08 11.897-.08 13.526 0 1.304.89 2.853 3.316 2.364 19.412-6.52 33.405-24.935 33.405-46.691C97.707 22 75.788 0 48.854 0z"/></symbol>
<symbol id="copy" viewBox="0 -960 960 960"  ><path d="M364.62-280q-27.62 0-46.12-18.5Q300-317 300-344.62v-430.76q0-27.62 18.5-46.12Q337-840 364.62-840h310.76q27.62 0 46.12 18.5Q740-803 740-775.38v430.76q0 27.62-18.5 46.12Q703-280 675.38-280H364.62Zm0-40h310.76q9.24 0 16.93-7.69 7.69-7.69 7.69-16.93v-430.76q0-9.24-7.69-16.93-7.69-7.69-16.93-7.69H364.62q-9.24 0-16.93 7.69-7.69 7.69-7.69 16.93v430.76q0 9.24 7.69 16.93 7.69 7.69 16.93 7.69Zm-120 160q-27.62 0-46.12-18.5Q180-197 180-224.61v-470.77h40v470.77q0 9.23 7.69 16.92 7.69 7.69 16.93 7.69h350.76v40H244.62ZM340-320v-480 480Z"/></symbol>
<symbol id="dashboard" viewBox="0 -960 960 960" ><path d="M540-600v-200h260v200H540ZM160-480v-320h260v320H160Zm380 320v-320h260v320H540Zm-380 0v-200h260v200H160Zm40-360h180v-240H200v240Zm380 320h180v-240H580v240Zm0-440h180v-120H580v120ZM200-200h180v-120H200v120Zm180-320Zm200-120Zm0 200ZM380-320Z"/></symbol>
<symbol id="lock" viewBox="0 -960 960 960"  ><path d="M264.62-120q-26.85 0-45.74-18.88Q200-157.77 200-184.62v-350.76q0-26.85 18.88-45.74Q237.77-600 264.62-600H320v-80q0-66.85 46.58-113.42Q413.15-840 480-840t113.42 46.58Q640-746.85 640-680v80h55.38q26.85 0 45.74 18.88Q760-562.23 760-535.38v350.76q0 26.85-18.88 45.74Q722.23-120 695.38-120H264.62Zm0-40h430.76q10.77 0 17.7-6.92 6.92-6.93 6.92-17.7v-350.76q0-10.77-6.92-17.7-6.93-6.92-17.7-6.92H264.62q-10.77 0-17.7 6.92-6.92 6.93-6.92 17.7v350.76q0 10.77 6.92 17.7 6.93 6.92 17.7 6.92ZM480-300q25.31 0 42.65-17.35Q540-334.69 540-360t-17.35-42.65Q505.31-420 480-420t-42.65 17.35Q420-385.31 420-360t17.35 42.65Q454.69-300 480-300ZM360-600h240v-80q0-50-35-85t-85-35q-50 0-85 35t-35 85v80ZM240-160v-400 400Z"/></symbol>
<symbol id="voff" viewBox="0 -960 960 960" ><path d="M617.85-454.15 586-486q9-52.38-29.69-90.69Q517.62-615 466-606l-31.85-31.85q10.08-4.15 21.04-6.23 10.96-2.07 24.81-2.07 61.15 0 103.65 42.5 42.5 42.5 42.5 103.65 0 13.85-2.07 25.58-2.08 11.73-6.23 20.27Zm126.46 122.92L714-358q38-29 67.5-63.5T832-500q-50-101-143.5-160.5T480-720q-29 0-57 4t-55 12l-31.23-31.23q34.85-13.15 70.92-18.96Q443.77-760 480-760q130.23 0 238.23 71.58 108 71.57 158.69 188.42-21.46 48.23-54.34 90.65-32.89 42.43-78.27 78.12Zm44.61 216.77L633.23-269.69q-26.54 11.77-65.88 20.73Q528-240 480-240q-131 0-238.23-71.58Q134.54-383.15 83.08-500q23.3-53 61.46-99.27 38.15-46.27 81.46-77.65l-111.54-112 28.31-28.31 674.46 674.46-28.31 28.31ZM254.31-648.62q-34.39 24.47-70.31 64.31-35.92 39.85-56 84.31 50 101 143.5 160.5T480-280q34.62 0 69.77-6.73t52.85-13.58L537.38-366q-9.46 5.31-26.38 8.73-16.92 3.42-31 3.42-61.15 0-103.65-42.5-42.5-42.5-42.5-103.65 0-13.31 3.42-29.85 3.42-16.53 8.73-27.53l-91.69-91.24ZM541-531Zm-112.54 56.54Z"/></symbol>
<symbol id="filter" viewBox="0 -960 960 960" ><path d="M422.31-280v-40h114.61v40H422.31Zm-150-180v-40h414.61v40H272.31ZM160-640v-40h640v40H160Z"/></symbol>
<symbol id="clear-filter" viewBox="0 -960 960 960" ><path d="M793.31-109.62 109.62-793.31l28.53-28.54 683.7 683.7-28.54 28.53ZM613-460l-40-40h113.92v40H613ZM433-640l-40-40h407v40H433Zm-10.69 360v-40h114.61v40H422.31Zm-150-180v-40h170.61v40H272.31ZM160-640v-40h102.92v40H160Z"/></symbol>
<symbol id="person-add" viewBox="0 -960 960 960" ><path d="M730-420v-120H610v-40h120v-120h40v120h120v40H770v120h-40Zm-370-84.62q-49.5 0-84.75-35.25T240-624.62q0-49.5 35.25-84.75T360-744.62q49.5 0 84.75 35.25T480-624.62q0 49.5-35.25 84.75T360-504.62ZM80-215.38v-65.85q0-24.77 14.42-46.35 14.43-21.57 38.81-33.5 56.62-27.15 113.31-40.73 56.69-13.57 113.46-13.57 56.77 0 113.46 13.57 56.69 13.58 113.31 40.73 24.38 11.93 38.81 33.5Q640-306 640-281.23v65.85H80Zm40-40h480v-25.85q0-13.31-8.58-25-8.57-11.69-23.73-19.77-49.38-23.92-101.83-36.65-52.45-12.73-105.86-12.73t-105.86 12.73Q201.69-349.92 152.31-326q-15.16 8.08-23.73 19.77-8.58 11.69-8.58 25v25.85Zm240-289.24q33 0 56.5-23.5t23.5-56.5q0-33-23.5-56.5t-56.5-23.5q-33 0-56.5 23.5t-23.5 56.5q0 33 23.5 56.5t56.5 23.5Zm0-80Zm0 369.24Z"/></symbol>
<symbol id="edit" viewBox="0 -960 960 960"  ><path d="M200-200h43.92l427.93-427.92-43.93-43.93L200-243.92V-200Zm-40 40v-100.77l527.23-527.77q6.15-5.48 13.57-8.47 7.43-2.99 15.49-2.99t15.62 2.54q7.55 2.54 13.94 9.15l42.69 42.93q6.61 6.38 9.04 14 2.42 7.63 2.42 15.25 0 8.13-2.74 15.56-2.74 7.42-8.72 13.57L260.77-160H160Zm600.77-556.31-44.46-44.46 44.46 44.46ZM649.5-649.5l-21.58-22.35 43.93 43.93-22.35-21.58Z"/></symbol>
<symbol id="more-vert" viewBox="0 -960 960 960" ><path d="M480-218.46q-16.5 0-28.25-11.75T440-258.46q0-16.5 11.75-28.25T480-298.46q16.5 0 28.25 11.75T520-258.46q0 16.5-11.75 28.25T480-218.46ZM480-440q-16.5 0-28.25-11.75T440-480q0-16.5 11.75-28.25T480-520q16.5 0 28.25 11.75T520-480q0 16.5-11.75 28.25T480-440Zm0-221.54q-16.5 0-28.25-11.75T440-701.54q0-16.5 11.75-28.25T480-741.54q16.5 0 28.25 11.75T520-701.54q0 16.5-11.75 28.25T480-661.54Z"/></symbol>
<symbol id="lock-open" viewBox="0 -960 960 960" ><path d="M264.62-160h430.76q10.77 0 17.7-6.92 6.92-6.93 6.92-17.7v-350.76q0-10.77-6.92-17.7-6.93-6.92-17.7-6.92H264.62q-10.77 0-17.7 6.92-6.92 6.93-6.92 17.7v350.76q0 10.77 6.92 17.7 6.93 6.92 17.7 6.92ZM480-300q25.31 0 42.65-17.35Q540-334.69 540-360t-17.35-42.65Q505.31-420 480-420t-42.65 17.35Q420-385.31 420-360t17.35 42.65Q454.69-300 480-300ZM240-160v-400 400Zm24.62 40q-26.85 0-45.74-18.88Q200-157.77 200-184.62v-350.76q0-26.85 18.88-45.74Q237.77-600 264.62-600H560v-80q0-66.85 46.58-113.42Q653.15-840 720-840t113.42 46.58Q880-746.85 880-680h-40q0-50-35-85t-85-35q-50 0-85 35t-35 85v80h95.38q26.85 0 45.74 18.88Q760-562.23 760-535.38v350.76q0 26.85-18.88 45.74Q722.23-120 695.38-120H264.62Z"/></symbol>
<symbol id="rsvp" viewBox="0 -960 960 960" ><path d="M52.31-372.31v-215.38h126.15q20.51 0 34.87 14.36 14.36 14.36 14.36 34.87V-500q0 19.54-13.19 31.46-13.19 11.92-28.19 15.31l35.23 80.92h-37.69l-34-80H87.69v80H52.31Zm240 0v-35.38h120v-54.62h-87.69q-13.74 0-23.02-9.29-9.29-9.28-9.29-23.02v-60.76q0-13.74 9.29-23.02 9.28-9.29 23.02-9.29h123.07v35.38h-120v54.62h87.69q13.74 0 23.02 9.29 9.29 9.28 9.29 23.02v60.76q0 13.74-9.29 23.02-9.28 9.29-23.02 9.29H292.31Zm285.38 0-63.07-215.38h36.15L600-419.15l49.23-168.54h36.15l-63.07 215.38h-44.62Zm154.62 0v-215.38h126.15q20.51 0 34.87 14.36 14.36 14.36 14.36 34.87v36.92q0 20.51-14.36 34.87-14.36 14.36-34.87 14.36h-90.77v80h-35.38ZM87.69-487.69h90.77q6.16 0 10-3.08 3.85-3.08 3.85-9.23v-38.46q0-6.16-3.85-10-3.84-3.85-10-3.85H87.69v64.62Zm680 0h90.77q6.16 0 10-3.85 3.85-3.84 3.85-10v-36.92q0-6.16-3.85-10-3.84-3.85-10-3.85h-90.77v64.62Z"/></symbol>
<symbol id="group" viewBox="0 -960 960 960" ><path d="M333.85-343.08q25.3 0 42.65-17.34 17.35-17.35 17.35-42.66 0-25.3-17.35-42.65-17.35-17.35-42.65-17.35-25.31 0-42.66 17.35-17.34 17.35-17.34 42.65 0 25.31 17.34 42.66 17.35 17.34 42.66 17.34Zm292.3 0q25.31 0 42.66-17.34 17.34-17.35 17.34-42.66 0-25.3-17.34-42.65-17.35-17.35-42.66-17.35-25.3 0-42.65 17.35-17.35 17.35-17.35 42.65 0 25.31 17.35 42.66 17.35 17.34 42.65 17.34ZM480-575.38q25.31 0 42.65-17.35Q540-610.08 540-635.38q0-25.31-17.35-42.66-17.34-17.34-42.65-17.34t-42.65 17.34Q420-660.69 420-635.38q0 25.3 17.35 42.65 17.34 17.35 42.65 17.35Zm.13 455.38q-74.67 0-140.41-28.34-65.73-28.34-114.36-76.92-48.63-48.58-76.99-114.26Q120-405.19 120-479.87q0-74.67 28.34-140.41 28.34-65.73 76.92-114.36 48.58-48.63 114.26-76.99Q405.19-840 479.87-840q74.67 0 140.41 28.34 65.73 28.34 114.36 76.92 48.63 48.58 76.99 114.26Q840-554.81 840-480.13q0 74.67-28.34 140.41-28.34 65.73-76.92 114.36-48.58 48.63-114.26 76.99Q554.81-120 480.13-120Zm-.13-40q134 0 227-93t93-227q0-134-93-227t-227-93q-134 0-227 93t-93 227q0 134 93 227t227 93Zm0-320Z"/></symbol>
<symbol id="pages" viewBox="0 -960 960 960" ><path d="M224.62-160q-27.62 0-46.12-18.5Q160-197 160-224.62v-510.76q0-27.62 18.5-46.12Q197-800 224.62-800h510.76q27.62 0 46.12 18.5Q800-763 800-735.38v510.76q0 27.62-18.5 46.12Q763-160 735.38-160H224.62Zm0-40h510.76q9.24 0 16.93-7.69 7.69-7.69 7.69-16.93v-510.76q0-9.24-7.69-16.93-7.69-7.69-16.93-7.69H224.62q-9.24 0-16.93 7.69-7.69 7.69-7.69 16.93v510.76q0 9.24 7.69 16.93 7.69 7.69 16.93 7.69ZM200-760v560-560Zm180.69 422.31L480-397.92l99.31 60.23-26.39-113 87.85-75.39-115.46-10.23-45.31-106-45.31 106-115.46 10.23 87.85 75.39-26.39 113Z"/></symbol>
<symbol id="badge" viewBox="0 -960 960 960" ><path d="M184.62-120q-27.62 0-46.12-18.5Q120-157 120-184.62v-390.76q0-27.62 18.5-46.12Q157-640 184.62-640H400v-160q0-16.85 11.58-28.42Q423.15-840 440-840h80q16.85 0 28.42 11.58Q560-816.85 560-800v160h215.38q27.62 0 46.12 18.5Q840-603 840-575.38v390.76q0 27.62-18.5 46.12Q803-120 775.38-120H184.62Zm0-40h590.76q10.77 0 17.7-6.92 6.92-6.93 6.92-17.7v-390.76q0-10.77-6.92-17.7-6.93-6.92-17.7-6.92H560v30.77q0 16.08-11.96 28.04T520-529.23h-80q-16.08 0-28.04-11.96T400-569.23V-600H184.62q-10.77 0-17.7 6.92-6.92 6.93-6.92 17.7v390.76q0 10.77 6.92 17.7 6.93 6.92 17.7 6.92Zm67.69-103.08h215.38v-5.69q0-13.92-7.57-25.35-7.58-11.42-20.74-17.88-19.23-8.23-38.96-12.35-19.73-4.11-40.42-4.11t-40.42 4.11q-19.73 4.12-38.96 12.35-13.16 6.46-20.74 17.88-7.57 11.43-7.57 25.35v5.69ZM560-324.62h160V-360H560v35.38ZM360-360q19.62 0 33.65-14.04 14.04-14.04 14.04-33.65 0-19.62-14.04-33.66-14.03-14.03-33.65-14.03-19.62 0-33.65 14.03-14.04 14.04-14.04 33.66 0 19.61 14.04 33.65Q340.38-360 360-360Zm200-60h160v-35.38H560V-420ZM440-569.23h80V-800h-80v230.77ZM480-380Z"/></symbol>
<symbol id="palette" viewBox="0 -960 960 960" ><path d="M478.46-120q-73.54 0-138.84-28.42-65.31-28.43-114.04-77.16-48.73-48.73-77.16-114.42Q120-405.69 120-480q0-75.31 29.04-141t79.15-114.31q50.12-48.61 117.58-76.65Q413.23-840 489.54-840q70 0 133.31 23.65 63.3 23.66 111.42 65.62 48.11 41.96 76.92 100Q840-592.69 840-524.15q0 92.69-53.46 148.42Q733.08-320 640-320h-70.92q-25.16 0-42.12 17.31Q510-285.38 510-260.92q0 25.07 15 42.57T540-178q0 29.23-16.35 43.62Q507.31-120 478.46-120ZM480-480Zm-220 20q16.77 0 28.38-11.62Q300-483.23 300-500t-11.62-28.38Q276.77-540 260-540t-28.38 11.62Q220-516.77 220-500t11.62 28.38Q243.23-460 260-460Zm120-160q16.77 0 28.38-11.62Q420-643.23 420-660t-11.62-28.38Q396.77-700 380-700t-28.38 11.62Q340-676.77 340-660t11.62 28.38Q363.23-620 380-620Zm200 0q16.77 0 28.38-11.62Q620-643.23 620-660t-11.62-28.38Q596.77-700 580-700t-28.38 11.62Q540-676.77 540-660t11.62 28.38Q563.23-620 580-620Zm120 160q16.77 0 28.38-11.62Q740-483.23 740-500t-11.62-28.38Q716.77-540 700-540t-28.38 11.62Q660-516.77 660-500t11.62 28.38Q683.23-460 700-460ZM478.46-160q10.54 0 16.04-4.62 5.5-4.61 5.5-13.38 0-14-15-29.92-15-15.93-15-52.39 0-43.54 29-71.61Q528-360 570-360h70q75.23 0 117.62-44.27Q800-448.54 800-524.15q0-121.77-93.65-198.81Q612.69-800 489.54-800q-138.31 0-233.92 93Q160-614 160-480q0 133 93.5 226.5T478.46-160Z"/></symbol>
<symbol id="person-add" viewBox="0 -960 960 960" ><path d="M730-420v-120H610v-40h120v-120h40v120h120v40H770v120h-40Zm-370-84.62q-49.5 0-84.75-35.25T240-624.62q0-49.5 35.25-84.75T360-744.62q49.5 0 84.75 35.25T480-624.62q0 49.5-35.25 84.75T360-504.62ZM80-215.38v-65.85q0-24.77 14.42-46.35 14.43-21.57 38.81-33.5 56.62-27.15 113.31-40.73 56.69-13.57 113.46-13.57 56.77 0 113.46 13.57 56.69 13.58 113.31 40.73 24.38 11.93 38.81 33.5Q640-306 640-281.23v65.85H80Zm40-40h480v-25.85q0-13.31-8.58-25-8.57-11.69-23.73-19.77-49.38-23.92-101.83-36.65-52.45-12.73-105.86-12.73t-105.86 12.73Q201.69-349.92 152.31-326q-15.16 8.08-23.73 19.77-8.58 11.69-8.58 25v25.85Zm240-289.24q33 0 56.5-23.5t23.5-56.5q0-33-23.5-56.5t-56.5-23.5q-33 0-56.5 23.5t-23.5 56.5q0 33 23.5 56.5t56.5 23.5Zm0-80Zm0 369.24Z"/></symbol>
<symbol id="add-app" viewBox="0 -960 960 960" ><path d="M460-300h40v-160h160v-40H500v-160h-40v160H300v40h160v160ZM224.62-160q-27.62 0-46.12-18.5Q160-197 160-224.62v-510.76q0-27.62 18.5-46.12Q197-800 224.62-800h510.76q27.62 0 46.12 18.5Q800-763 800-735.38v510.76q0 27.62-18.5 46.12Q763-160 735.38-160H224.62Zm0-40h510.76q9.24 0 16.93-7.69 7.69-7.69 7.69-16.93v-510.76q0-9.24-7.69-16.93-7.69-7.69-16.93-7.69H224.62q-9.24 0-16.93 7.69-7.69 7.69-7.69 16.93v510.76q0 9.24 7.69 16.93 7.69 7.69 16.93 7.69ZM200-760v560-560Z"/></symbol>
<symbol id="person-remove" viewBox="0 -960 960 960" ><path d="M696-467.69 667.69-496l83.77-84-83.77-83L696-691.54l84 84 83-84L891.54-663l-83.23 83 83.23 84L863-467.69l-83-83-84 83Zm-336-36.93q-49.5 0-84.75-35.25T240-624.62q0-49.5 35.25-84.75T360-744.62q49.5 0 84.75 35.25T480-624.62q0 49.5-35.25 84.75T360-504.62ZM80-215.38v-65.85q0-24.77 14.42-46.35 14.43-21.57 38.81-33.5 56.62-27.15 113.31-40.73 56.69-13.57 113.46-13.57 56.77 0 113.46 13.57 56.69 13.58 113.31 40.73 24.38 11.93 38.81 33.5Q640-306 640-281.23v65.85H80Zm40-40h480v-25.85q0-13.31-8.58-25-8.57-11.69-23.73-19.77-49.38-23.92-101.83-36.65-52.45-12.73-105.86-12.73t-105.86 12.73Q201.69-349.92 152.31-326q-15.16 8.08-23.73 19.77-8.58 11.69-8.58 25v25.85Zm240-289.24q33 0 56.5-23.5t23.5-56.5q0-33-23.5-56.5t-56.5-23.5q-33 0-56.5 23.5t-23.5 56.5q0 33 23.5 56.5t56.5 23.5Zm0-80Zm0 369.24Z"/></symbol>
<symbol id="folder-delete" viewBox="0 -960 960 960" ><path d="M569.23-295.38h95.39q19.61 0 33.65-14.04t14.04-33.66v-181.54h32.31V-560h-92.31v-24.62h-70.77V-560h-92.31v35.38h32.31v181.54q0 19.62 14.04 33.66 14.04 14.04 33.65 14.04Zm-12.31-229.24h120v181.54q0 5.39-3.46 8.85t-8.84 3.46h-95.39q-5.38 0-8.85-3.46-3.46-3.46-3.46-8.85v-181.54ZM184.62-200q-27.62 0-46.12-18.5Q120-237 120-264.62v-430.76q0-27.62 18.5-46.12Q157-760 184.62-760h199.23l80 80h311.53q27.62 0 46.12 18.5Q840-643 840-615.38v350.76q0 27.62-18.5 46.12Q803-200 775.38-200H184.62Zm0-40h590.76q10.77 0 17.7-6.92 6.92-6.93 6.92-17.7v-350.76q0-10.77-6.92-17.7-6.93-6.92-17.7-6.92H447.77l-80-80H184.62q-10.77 0-17.7 6.92-6.92 6.93-6.92 17.7v430.76q0 10.77 6.92 17.7 6.93 6.92 17.7 6.92ZM160-240v-480 480Z"/></symbol>
<symbol id="delete" viewBox="0 -960 960 960" ><path d="M304.62-160q-26.85 0-45.74-18.88Q240-197.77 240-224.62V-720h-40v-40h160v-30.77h240V-760h160v40h-40v495.38q0 27.62-18.5 46.12Q683-160 655.38-160H304.62ZM680-720H280v495.38q0 10.77 6.92 17.7 6.93 6.92 17.7 6.92h350.76q9.24 0 16.93-7.69 7.69-7.69 7.69-16.93V-720ZM392.31-280h40v-360h-40v360Zm135.38 0h40v-360h-40v360ZM280-720v520-520Z"/></symbol>
<symbol id="cashflow" viewBox="0 -960 960 960" ><path d="M347.69-469.38v-222.93h64.62v222.93L380-502.31l-32.31 32.93Zm173.85 89.23v-472.16h64.61v407.54l-64.61 64.62Zm-349.23 85.69v-237.85h64.61v173.23l-64.61 64.62ZM167.69-138l211.85-211.85 142 122L791.69-498H700v-40h160v160h-40v-91.69L522.46-172.15l-142-122L224.31-138h-56.62Z"/></symbol>
<symbol id="article" viewBox="0 -960 960 960" ><path d="M460-267.23v-392.46q-43.31-30.93-95.46-46.39-52.16-15.46-104.54-15.46-36 0-63.04 4.31t-60.04 16q-9.23 3.08-13.07 8.85-3.85 5.76-3.85 12.69v360.61q0 10.77 7.69 15.77t16.93 1.16q21.92-7.39 50.65-11.85 28.73-4.46 64.73-4.46 52.38 0 101.88 12.04 49.5 12.04 98.12 39.19Zm20 58q-48.77-33.39-104.77-51.31-56-17.92-115.23-17.92-31.23 0-61.35 5.23Q168.54-268 140-256.46q-21.77 8.69-40.88-5.23Q80-275.61 80-300.15v-386.62q0-14.85 7.81-27.54T109.69-732q35.23-15.54 73.31-22.54 38.08-7 77-7 65.54 0 116.38 16.62 50.85 16.61 103.93 49.3 9.46 5.24 14.57 14 5.12 8.77 5.12 20.24v394.15q48.62-27.15 98.12-39.19 49.5-12.04 101.88-12.04 36 0 64.73 4.46 28.73 4.46 50.65 11.85 9.24 3.84 16.93-1.16 7.69-5 7.69-15.77v-417.15q3.46 1.15 6.81 2.54 3.34 1.38 6.57 3.23 13.31 5.77 19.97 17.69 6.65 11.92 6.65 26v386.62q0 24.54-20.65 37.69-20.66 13.15-43.97 4.46-27.76-10.77-56.73-15.62-28.96-4.84-58.65-4.84-59.23 0-115.23 17.92-56 17.92-104.77 51.31ZM607.69-400v-400l124.62-40v400l-124.62 40ZM290-494.38Z"/></symbol>
<symbol id="apps" viewBox="0 -960 960 960"  ><path d="M240-190.77q-20.31 0-34.77-14.46-14.46-14.46-14.46-34.77 0-20.31 14.46-34.77 14.46-14.46 34.77-14.46 20.31 0 34.77 14.46 14.46 14.46 14.46 34.77 0 20.31-14.46 34.77-14.46 14.46-34.77 14.46Zm240 0q-20.31 0-34.77-14.46-14.46-14.46-14.46-34.77 0-20.31 14.46-34.77 14.46-14.46 34.77-14.46 20.31 0 34.77 14.46 14.46 14.46 14.46 34.77 0 20.31-14.46 34.77-14.46 14.46-34.77 14.46Zm240 0q-20.31 0-34.77-14.46-14.46-14.46-14.46-34.77 0-20.31 14.46-34.77 14.46-14.46 34.77-14.46 20.31 0 34.77 14.46 14.46 14.46 14.46 34.77 0 20.31-14.46 34.77-14.46 14.46-34.77 14.46Zm-480-240q-20.31 0-34.77-14.46-14.46-14.46-14.46-34.77 0-20.31 14.46-34.77 14.46-14.46 34.77-14.46 20.31 0 34.77 14.46 14.46 14.46 14.46 34.77 0 20.31-14.46 34.77-14.46 14.46-34.77 14.46Zm240 0q-20.31 0-34.77-14.46-14.46-14.46-14.46-34.77 0-20.31 14.46-34.77 14.46-14.46 34.77-14.46 20.31 0 34.77 14.46 14.46 14.46 14.46 34.77 0 20.31-14.46 34.77-14.46 14.46-34.77 14.46Zm240 0q-20.31 0-34.77-14.46-14.46-14.46-14.46-34.77 0-20.31 14.46-34.77 14.46-14.46 34.77-14.46 20.31 0 34.77 14.46 14.46 14.46 14.46 34.77 0 20.31-14.46 34.77-14.46 14.46-34.77 14.46Zm-480-240q-20.31 0-34.77-14.46-14.46-14.46-14.46-34.77 0-20.31 14.46-34.77 14.46-14.46 34.77-14.46 20.31 0 34.77 14.46 14.46 14.46 14.46 34.77 0 20.31-14.46 34.77-14.46 14.46-34.77 14.46Zm240 0q-20.31 0-34.77-14.46-14.46-14.46-14.46-34.77 0-20.31 14.46-34.77 14.46-14.46 34.77-14.46 20.31 0 34.77 14.46 14.46 14.46 14.46 34.77 0 20.31-14.46 34.77-14.46 14.46-34.77 14.46Zm240 0q-20.31 0-34.77-14.46-14.46-14.46-14.46-34.77 0-20.31 14.46-34.77 14.46-14.46 34.77-14.46 20.31 0 34.77 14.46 14.46 14.46 14.46 34.77 0 20.31-14.46 34.77-14.46 14.46-34.77 14.46Z"/></symbol>
<symbol id="info" viewBox="0 -960 960 960" ><path d="M450-290h60v-230h-60v230Zm30-298.46q13.73 0 23.02-9.29t9.29-23.02q0-13.73-9.29-23.02-9.29-9.28-23.02-9.28t-23.02 9.28q-9.29 9.29-9.29 23.02t9.29 23.02q9.29 9.29 23.02 9.29Zm.07 488.46q-78.84 0-148.21-29.92t-120.68-81.21q-51.31-51.29-81.25-120.63Q100-401.1 100-479.93q0-78.84 29.92-148.21t81.21-120.68q51.29-51.31 120.63-81.25Q401.1-860 479.93-860q78.84 0 148.21 29.92t120.68 81.21q51.31 51.29 81.25 120.63Q860-558.9 860-480.07q0 78.84-29.92 148.21t-81.21 120.68q-51.29 51.31-120.63 81.25Q558.9-100 480.07-100Zm-.07-60q134 0 227-93t93-227q0-134-93-227t-227-93q-134 0-227 93t-93 227q0 134 93 227t227 93Zm0-320Z"/></symbol>
<symbol id="collapse" viewBox="0 -960 960 960" ><path d="M296-107.69 267.69-136 480-348.31 692.31-136 664-107.69l-184-184-184 184Zm184-504L267.69-824 296-852.31l184 184 184-184L692.31-824 480-611.69Z"/></symbol>
<symbol id="approve" viewBox="0 -960 960 960" ><path d="M200-181.54V-360q0-27.62 18.5-46.12 18.5-18.5 46.12-18.5h430.76q27.62 0 46.12 18.5Q760-387.62 760-360v178.46H200Zm40-120h480V-360q0-9.23-7.69-16.92-7.69-7.69-16.93-7.69H264.62q-9.24 0-16.93 7.69Q240-369.23 240-360v58.46Zm240-123.08L320-641.54v-7.69q0-66.85 46.58-113.42 46.57-46.58 113.42-46.58t113.42 46.58Q640-716.08 640-649.23v7.69L480-424.62Zm0-62 120-162.61q0-50-35-85t-85-35q-50 0-85 35t-35 85l120 162.61Zm0-141.69Z"/></symbol>
<symbol id="expand-down" viewBox="0 -960 960 960" ><path d="M480-368.46 631.54-520 603-547.54l-123 123-123-123L328.46-520 480-368.46Zm.13 248.46q-74.67 0-140.41-28.34-65.73-28.34-114.36-76.92-48.63-48.58-76.99-114.26Q120-405.19 120-479.87q0-74.67 28.34-140.41 28.34-65.73 76.92-114.36 48.58-48.63 114.26-76.99Q405.19-840 479.87-840q74.67 0 140.41 28.34 65.73 28.34 114.36 76.92 48.63 48.58 76.99 114.26Q840-554.81 840-480.13q0 74.67-28.34 140.41-28.34 65.73-76.92 114.36-48.58 48.63-114.26 76.99Q554.81-120 480.13-120Zm-.13-40q134 0 227-93t93-227q0-134-93-227t-227-93q-134 0-227 93t-93 227q0 134 93 227t227 93Zm0-320Z"/></symbol>
<symbol id="expand-up" viewBox="0 -960 960 960" ><path d="m357-412.46 123-123 123 123L631.54-440 480-591.54 328.46-440 357-412.46ZM480.13-120q-74.67 0-140.41-28.34-65.73-28.34-114.36-76.92-48.63-48.58-76.99-114.26Q120-405.19 120-479.87q0-74.67 28.34-140.41 28.34-65.73 76.92-114.36 48.58-48.63 114.26-76.99Q405.19-840 479.87-840q74.67 0 140.41 28.34 65.73 28.34 114.36 76.92 48.63 48.58 76.99 114.26Q840-554.81 840-480.13q0 74.67-28.34 140.41-28.34 65.73-76.92 114.36-48.58 48.63-114.26 76.99Q554.81-120 480.13-120Zm-.13-40q134 0 227-93t93-227q0-134-93-227t-227-93q-134 0-227 93t-93 227q0 134 93 227t227 93Zm0-320Z"/></symbol>
<symbol id="attach" viewBox="0 -960 960 960" ><path d="M693.85-338.46q0 90.88-62.62 154.67Q568.62-120 478.08-120t-153.54-63.79q-63-63.79-63-154.67v-349.23q0-63.46 43.65-107.89Q348.85-840 412.31-840q63.46 0 107.11 44.42 43.66 44.43 43.66 107.89v330.77q0 35.23-24.59 60.69-24.58 25.46-59.92 25.46t-60.8-25.06q-25.46-25.06-25.46-61.09v-332.31h40v332.31q0 19.15 13.11 32.65 13.12 13.5 32.27 13.5 19.16 0 32.27-13.5 13.12-13.5 13.12-32.65v-331.54q-.23-46.62-32.06-79.08Q459.2-800 412.31-800q-46.53 0-78.65 32.85-32.12 32.84-32.12 79.46v349.23q-.23 74.08 51.31 126.27Q404.38-160 478.36-160q72.92 0 123.97-52.19t51.52-126.27v-350.77h40v350.77Z"/></symbol>
<symbol id="file" viewBox="0 -960 960 960" ><path d="M264.62-120q-27.62 0-46.12-18.5Q200-157 200-184.62v-590.76q0-27.62 18.5-46.12Q237-840 264.62-840H580l180 180v475.38q0 27.62-18.5 46.12Q723-120 695.38-120H264.62ZM560-640v-160H264.62q-9.24 0-16.93 7.69-7.69 7.69-7.69 16.93v590.76q0 9.24 7.69 16.93 7.69 7.69 16.93 7.69h430.76q9.24 0 16.93-7.69 7.69-7.69 7.69-16.93V-640H560ZM240-800v160-160 640-640Z"/></symbol>
<symbol id="person-circle" viewBox="0 0 16 16">
    <path d="M11 6a3 3 0 1 1-6 0 3 3 0 0 1 6 0z"/>
    <path fill-rule="evenodd" d="M0 8a8 8 0 1 1 16 0A8 8 0 0 1 0 8zm8-7a7 7 0 0 0-5.468 11.37C3.242 11.226 4.805 10 8 10s4.757 1.225 5.468 2.37A7 7 0 0 0 8 1z"/>
</symbol>
<symbol id="building" viewBox="0 0 16 16">
    <path d="M4 2.5a.5.5 0 0 1 .5-.5h1a.5.5 0 0 1 .5.5v1a.5.5 0 0 1-.5.5h-1a.5.5 0 0 1-.5-.5v-1Zm3 0a.5.5 0 0 1 .5-.5h1a.5.5 0 0 1 .5.5v1a.5.5 0 0 1-.5.5h-1a.5.5 0 0 1-.5-.5v-1Zm3.5-.5a.5.5 0 0 0-.5.5v1a.5.5 0 0 0 .5.5h1a.5.5 0 0 0 .5-.5v-1a.5.5 0 0 0-.5-.5h-1ZM4 5.5a.5.5 0 0 1 .5-.5h1a.5.5 0 0 1 .5.5v1a.5.5 0 0 1-.5.5h-1a.5.5 0 0 1-.5-.5v-1ZM7.5 5a.5.5 0 0 0-.5.5v1a.5.5 0 0 0 .5.5h1a.5.5 0 0 0 .5-.5v-1a.5.5 0 0 0-.5-.5h-1Zm2.5.5a.5.5 0 0 1 .5-.5h1a.5.5 0 0 1 .5.5v1a.5.5 0 0 1-.5.5h-1a.5.5 0 0 1-.5-.5v-1ZM4.5 8a.5.5 0 0 0-.5.5v1a.5.5 0 0 0 .5.5h1a.5.5 0 0 0 .5-.5v-1a.5.5 0 0 0-.5-.5h-1Zm2.5.5a.5.5 0 0 1 .5-.5h1a.5.5 0 0 1 .5.5v1a.5.5 0 0 1-.5.5h-1a.5.5 0 0 1-.5-.5v-1Zm3.5-.5a.5.5 0 0 0-.5.5v1a.5.5 0 0 0 .5.5h1a.5.5 0 0 0 .5-.5v-1a.5.5 0 0 0-.5-.5h-1Z"/>
    <path d="M2 1a1 1 0 0 1 1-1h10a1 1 0 0 1 1 1v14a1 1 0 0 1-1 1H3a1 1 0 0 1-1-1V1Zm11 0H3v14h3v-2.5a.5.5 0 0 1 .5-.5h3a.5.5 0 0 1 .5.5V15h3V1Z"/>
</symbol>
<symbol id="people" viewBox="0 0 16 16">
    <path d="M15 14s1 0 1-1-1-4-5-4-5 3-5 4 1 1 1 1h8Zm-7.978-1A.261.261 0 0 1 7 12.996c.001-.264.167-1.03.76-1.72C8.312 10.629 9.282 10 11 10c1.717 0 2.687.63 3.24 1.276.593.69.758 1.457.76 1.72l-.008.002a.274.274 0 0 1-.014.002H7.022ZM11 7a2 2 0 1 0 0-4 2 2 0 0 0 0 4Zm3-2a3 3 0 1 1-6 0 3 3 0 0 1 6 0ZM6.936 9.28a5.88 5.88 0 0 0-1.23-.247A7.35 7.35 0 0 0 5 9c-4 0-5 3-5 4 0 .667.333 1 1 1h4.216A2.238 2.238 0 0 1 5 13c0-1.01.377-2.042 1.09-2.904.243-.294.526-.569.846-.816ZM4.92 10A5.493 5.493 0 0 0 4 13H1c0-.26.164-1.03.76-1.724.545-.636 1.492-1.256 3.16-1.275ZM1.5 5.5a3 3 0 1 1 6 0 3 3 0 0 1-6 0Zm3-2a2 2 0 1 0 0 4 2 2 0 0 0 0-4Z"/>
</symbol>
<symbol id="person-plus" viewBox="0 0 16 16">
    <path d="M6 8a3 3 0 1 0 0-6 3 3 0 0 0 0 6zm2-3a2 2 0 1 1-4 0 2 2 0 0 1 4 0zm4 8c0 1-1 1-1 1H1s-1 0-1-1 1-4 6-4 6 3 6 4zm-1-.004c-.001-.246-.154-.986-.832-1.664C9.516 10.68 8.289 10 6 10c-2.29 0-3.516.68-4.168 1.332-.678.678-.83 1.418-.832 1.664h10z"/>
    <path fill-rule="evenodd" d="M13.5 5a.5.5 0 0 1 .5.5V7h1.5a.5.5 0 0 1 0 1H14v1.5a.5.5 0 0 1-1 0V8h-1.5a.5.5 0 0 1 0-1H13V5.5a.5.5 0 0 1 .5-.5z"/>
</symbol>
<symbol id="pencil-square" viewBox="0 0 16 16">
    <path d="M15.502 1.94a.5.5 0 0 1 0 .706L14.459 3.69l-2-2L13.502.646a.5.5 0 0 1 .707 0l1.293 1.293zm-1.75 2.456-2-2L4.939 9.21a.5.5 0 0 0-.121.196l-.805 2.414a.25.25 0 0 0 .316.316l2.414-.805a.5.5 0 0 0 .196-.12l6.813-6.814z"/>
    <path fill-rule="evenodd" d="M1 13.5A1.5 1.5 0 0 0 2.5 15h11a1.5 1.5 0 0 0 1.5-1.5v-6a.5.5 0 0 0-1 0v6a.5.5 0 0 1-.5.5h-11a.5.5 0 0 1-.5-.5v-11a.5.5 0 0 1 .5-.5H9a.5.5 0 0 0 0-1H2.5A1.5 1.5 0 0 0 1 2.5v11z"/>
</symbol>
<symbol id="cash-stack" viewBox="0 0 16 16">
    <path d="M1 3a1 1 0 0 1 1-1h12a1 1 0 0 1 1 1H1zm7 8a2 2 0 1 0 0-4 2 2 0 0 0 0 4z"/>
    <path d="M0 5a1 1 0 0 1 1-1h14a1 1 0 0 1 1 1v8a1 1 0 0 1-1 1H1a1 1 0 0 1-1-1V5zm3 0a2 2 0 0 1-2 2v4a2 2 0 0 1 2 2h10a2 2 0 0 1 2-2V7a2 2 0 0 1-2-2H3z"/>
</symbol>
<symbol id="wallet2" viewBox="0 0 16 16">
    <path d="M12.136.326A1.5 1.5 0 0 1 14 1.78V3h.5A1.5 1.5 0 0 1 16 4.5v9a1.5 1.5 0 0 1-1.5 1.5h-13A1.5 1.5 0 0 1 0 13.5v-9a1.5 1.5 0 0 1 1.432-1.499L12.136.326zM5.562 3H13V1.78a.5.5 0 0 0-.621-.484L5.562 3zM1.5 4a.5.5 0 0 0-.5.5v9a.5.5 0 0 0 .5.5h13a.5.5 0 0 0 .5-.5v-9a.5.5 0 0 0-.5-.5h-13z"/>
</symbol>
<symbol id="arrow-up-circle" viewBox="0 0 16 16">
    <path fill-rule="evenodd" d="M1 8a7 7 0 1 0 14 0A7 7 0 0 0 1 8zm15 0A8 8 0 1 1 0 8a8 8 0 0 1 16 0zm-7.5 3.5a.5.5 0 0 1-1 0V5.707L5.354 7.854a.5.5 0 1 1-.708-.708l3-3a.5.5 0 0 1 .708 0l3 3a.5.5 0 0 1-.708.708L8.5 5.707V11.5z"/>
</symbol>
<symbol id="arrow-down-circle" viewBox="0 0 16 16">
    <path fill-rule="evenodd" d="M1 8a7 7 0 1 0 14 0A7 7 0 0 0 1 8zm15 0A8 8 0 1 1 0 8a8 8 0 0 1 16 0zM8.5 4.5a.5.5 0 0 0-1 0v5.793L5.354 8.146a.5.5 0 1 0-.708.708l3 3a.5.5 0 0 0 .708 0l3-3a.5.5 0 0 0-.708-.708L8.5 10.293V4.5z"/>
</symbol>
<symbol id="arrow-left" viewBox="0 0 16 16">
    <path fill-rule="evenodd" d="M15 8a.5.5 0 0 0-.5-.5H2.707l3.147-3.146a.5.5 0 1 0-.708-.708l-4 4a.5.5 0 0 0 0 .708l4 4a.5.5 0 0 0 .708-.708L2.707 8.5H14.5A.5.5 0 0 0 15 8z"/>
</symbol>
<symbol id="receipt_long" viewBox="0 -960 960 960" ><path d="M240-120q-50 0-85-35t-35-85v-120h120v-560h600v680q0 50-35 85t-85 35H240Zm480-80q17 0 28.5-11.5T760-240v-600H280v480h360v120q0 17 11.5 28.5T680-200ZM360-600v-80h360v80H360Zm0 120v-80h360v80H360ZM200-280h88q-5-9-6.5-19t-1.5-21v-40h-80v40q0 17 11.5 28.5T200-280Zm0 0h-12 100-88Zm160-200v-280 280Z"/></symbol>
<symbol id="description" viewBox="0 -960 960 960" ><path d="M330-250h300v-60H330v60Zm0-160h300v-60H330v60Zm-77.69 310Q222-100 201-121q-21-21-21-51.31v-615.38Q180-818 201-839q21-21 51.31-21H570l210 210v477.69Q780-142 759-121q-21 21-51.31 21H252.31ZM540-620v-180H252.31q-4.62 0-8.46 3.85-3.85 3.84-3.85 8.46v615.38q0 4.62 3.85 8.46 3.84 3.85 8.46 3.85h455.38q4.62 0 8.46-3.85 3.85-3.84 3.85-8.46V-620H540ZM240-800v180-180V-160v-640Z"/></symbol>
<symbol id="rule" viewBox="0 -960 960 960" ><path d="m570.23-180-41.77-41.77 104-104-104-104 41.77-41.77 104 104 104-104L820-429.77l-104 104 104 104L778.23-180l-104-104-104 104Zm79.38-346.54L521.85-654.31l41.76-41.77 85 85 170-170 41.77 42.77-210.77 211.77ZM100-297.69v-60h340v60H100Zm0-304.62v-60h340v60H100Z"/></symbol>
<symbol id="star2" viewBox="0 -960 960 960"><path d="M336.31-265.84 480-352.23l144.08 87.77-37.62-163.62 126.39-109.07-166.39-14.93L480-706.54l-66.08 153.46-166.38 14.54 126.38 110.46-37.61 162.24Zm-91 125.84 61.92-266L100-585.38l273.39-23.47L480-860l107 251.15 273.38 23.47L653.15-406l61.93 266L480-281.31 245.31-140Zm448.15-538.85 19.46-82.07-65.61-54.77 86.69-7.23 33.31-77.46 33.3 77.46 86.7 7.23-65.62 54.77 19.46 82.07-73.84-43.53-73.85 43.53ZM480.38-486Z"/></symbol>
</svg>